# AST/ASF file generated using VICON BodyLanguage
# -----------------------------------------------
:version 1.10
:name VICON
:units
  mass 1.0
  length 0.45
  angle deg
:documentation
   .ast/.asf automatically generated from VICON data using
   VICON BodyBuilder and BodyLanguage model FoxedUp or BRILLIANT.MOD
:root
   order TX TY TZ RX RY RZ
   axis XYZ
   position 0 0 0  
   orientation 0 0 0 
:bonedata
  begin
     id 1 
     name lhipjoint
     direction 0.604623 -0.733026 0.311616 
     length 2.56391 
     axis 0 0 0  XYZ
  end
  begin
     id 2 
     name lfemur
     direction 0.34202 -0.939693 0  
     length 7.75596  
     axis 0 0 20  XYZ
    dof rx ry rz
    limits (-160.0 20.0)
           (-70.0 70.0)
           (-60.0 70.0)
  end
  begin
     id 3 
     name ltibia
     direction 0.34202 -0.939693 0   
     length 7.63697   
     axis 0 0 20   XYZ
    dof rx
    limits (-10.0 170.0)
  end
  begin
     id 4 
     name lfoot
     direction 0.048038 -0.131983 0.990087   
     length 1.94388   
     axis -90 7.62852e-016 20   XYZ
    dof rx rz
    limits (-45.0 90.0)
           (-70.0 20.0)
  end
  begin
     id 5 
     name ltoes
     direction 1.53565e-011 -4.21929e-011 1   
     length 0.984801   
     axis -90 7.62852e-016 20   XYZ
    dof rx
    limits (-90.0 20.0)
  end
  begin
     id 6 
     name rhipjoint
     direction -0.609162 -0.729836 0.31026   
     length 2.57511  
     axis 0 0 0  XYZ 
  end
  begin
     id 7 
     name rfemur
     direction -0.34202 -0.939693 0   
     length 7.60772   
     axis 0 0 -20   XYZ
    dof rx ry rz
    limits (-160.0 20.0)
           (-70.0 70.0)
           (-70.0 60.0)
  end
  begin
     id 8 
     name rtibia
     direction -0.34202 -0.939693 0   
     length 7.68497   
     axis 0 0 -20   XYZ
    dof rx
    limits (-10.0 170.0)
 end
 begin
     id 9 
     name rfoot
     direction -0.0969806 -0.266452 0.958957   
     length 2.01398  
     axis -90 -7.62852e-016 -20   XYZ
    dof rx rz
    limits (-45.0 90.0)
           (-20.0 70.0)
  end
  begin
     id 10 
     name rtoes
     direction -1.53552e-011 -4.21869e-011 1   
     length 1.00896   
     axis -90 -7.62852e-016 -20   XYZ
    dof rx
    limits (-90.0 20.0)
  end
  begin
     id 11 
     name lowerback
     direction 0.0305179 0.993923 -0.10576   
     length 2.09077   
     axis 0 0 0   XYZ
    dof rx ry rz
    limits (-20.0 45.0)
           (-30.0 30.0)
           (-30.0 30.0)
  end
  begin
     id 12 
     name upperback
     direction -0.0137909 0.999867 0.00873764   
     length 2.08918   
     axis 0 0 0   XYZ
    dof rx ry rz
    limits (-20.0 45.0)
           (-30.0 30.0)
           (-30.0 30.0)
  end
  begin
     id 13 
     name thorax
     direction -0.0278536 0.997917 0.0581839   
     length 2.11939   
     axis 0 0 0   XYZ
    dof rx ry rz
    limits (-20.0 45.0)
           (-30.0 30.0)
           (-30.0 30.0)
  end
  begin
     id 14 
     name lowerneck
     direction 0.0138689 0.999837 -0.0116016   
     length 1.74353   
     axis 0 0 0   XYZ
    dof rx ry rz
    limits (-20.0 45.0)
           (-30.0 30.0)
           (-30.0 30.0)
  end
  begin
     id 15 
     name upperneck
     direction -0.00992078 0.999667 0.0238149   
     length 1.71734   
     axis 0 0 0   XYZ
    dof rx ry rz
    limits (-20.0 45.0)
           (-30.0 30.0)
           (-30.0 30.0)
  end
  begin
     id 16
     name head
     direction -0.00530555 0.999941 0.00944937  
     length 1.78249  
     axis 0 0 0   XYZ
    dof rx ry rz
    limits (-20.0 45.0)
           (-30.0 30.0)
           (-30.0 30.0)
  end
  begin
     id 17 
     name lclavicle
     direction 0.929165 0.366864 0.0454227  
     length 3.65686  
     axis 0 0 0   XYZ
    dof ry rz
    limits (-20.0 10.0)
           (0.0 20.0)
  end
  begin
     id 18 
     name lhumerus
     direction 1 -4.4897e-011 3.05413e-018   
     length 5.15218   
     axis -180 -30 -90   XYZ
    dof rx ry rz
    limits (-60.0 90.0)
           (-90.0 90.0)
           (-90.0 90.0)
  end
  begin
     id 19
     name lradius
     direction 1 -4.48963e-011 5.40022e-027   
     length 3.49459   
     axis -180 -30 -90   XYZ
    dof rx
    limits (-10.0 170.0)
  end
  begin
     id 20
     name lwrist
     direction 1 -4.48966e-011 9.79369e-027   
     length 1.7473   
     axis -4.67603e-015 90 90   XYZ
    dof ry
    limits (-180.0 0.0)
 end
  begin
     id 21 
     name lhand
     direction 1 -4.48996e-011 1.9593e-026   
     length 0.512466   
     axis -1.24987e-014 90 90   XYZ
    dof rx rz
    limits (-90.0 90.0)
           (-45.0 45.0)
  end
  begin
     id 22 
     name lfingers
     direction 1 -4.48931e-011 3.91616e-026   
     length 0.413163   
     axis -2.49979e-014 90 90   XYZ
    dof rx
    limits (0.0 90.0)
  end
  begin
     id 23
     name lthumb
     direction 0.707107 -6.34959e-011 0.707107   
     length 0.593222   
     axis -90 45 5.69224e-014   XYZ
    dof rx rz
    limits (-45.0 45.0)
           (-45.0 45.0)
  end
  begin
     id 24 
     name rclavicle
     direction -0.951469 0.307727 0.00346571   
     length 3.42864  
     axis 0 0 0   XYZ 
    dof ry rz
    limits (-10.0 20.0)
           (-20.0 0.0)
  end
  begin
     id 25 
     name rhumerus
     direction -1 -4.48967e-011 2.58643e-027  
     length 5.44344   
     axis -180 30 90   XYZ
    dof rx ry rz
    limits (-90.0 60.0)
           (-90.0 90.0)
           (-90.0 90.0)
  end
  begin
     id 26 
     name rradius
     direction -1 -4.48973e-011 4.26485e-028   
     length 3.58403   
     axis -180 30 90   XYZ
    dof rx
    limits (-10.0 170.0)
  end
  begin
     id 27 
     name rwrist
     direction -1 -4.48962e-011 9.79331e-027   
     length 1.79202   
     axis -4.67603e-015 -90 -90   XYZ
    dof ry
    limits (-180.0 0.0)
  end
  begin
     id 28
     name rhand
     direction -1 -4.48975e-011 1.95891e-026   
     length 0.34249   
     axis -1.24987e-014 -90 -90   XYZ
    dof rx rz
    limits (-90.0 90.0)
           (-45.0 45.0)
  end
  begin
     id 29
     name rfingers
     direction -1 -4.48893e-011 3.9147e-026   
     length 0.276124   
     axis -2.49979e-014 -90 -90   XYZ
    dof rx
    limits (0.0 90.0)
  end
  begin
     id 30
     name rthumb
     direction -0.707107 -6.34898e-011 0.707107   
     length 0.39646   
     axis -90 -45 -5.69224e-014   XYZ
    dof rx rz
    limits (-45.0 45.0)
           (-45.0 45.0)
  end
:hierarchy
  begin
    root lhipjoint rhipjoint lowerback
    lhipjoint lfemur
    lfemur ltibia
    ltibia lfoot
    lfoot ltoes
    rhipjoint rfemur
    rfemur rtibia
    rtibia rfoot
    rfoot rtoes
    lowerback upperback
    upperback thorax
    thorax lowerneck lclavicle rclavicle
    lowerneck upperneck
    upperneck head
    lclavicle lhumerus
    lhumerus lradius
    lradius lwrist
    lwrist lhand lthumb
    lhand lfingers
    rclavicle rhumerus
    rhumerus rradius
    rradius rwrist
    rwrist rhand rthumb
    rhand rfingers
  end

#!OML:ASF H:\charlestonDancing\Project 1\Capture day 1\Session 1\femaleDancer.ASF
:FULLY-SPECIFIED
:DEGREES
325
root -13.6798 17.6959 -2.9135 -187.46 157.985 -548.456
lowerback 12.1249 3.16672 11.5012
upperback 2.60046 5.73144 1.53206
thorax -3.05749 2.78824 -5.60827
lowerneck 12.6799 14.2175 16.9354
upperneck -0.767662 21.0515 -13.3868
head 0.97336 10.9101 -6.6348
rclavicle -3.23149e-014 -2.52457e-014
rhumerus -35.9487 16.059 -87.5744
rradius 31.3947
rwrist 10.236
rhand -18.6205 -31.5508
rfingers 7.12502
rthumb 7.67144 -61.3917
lclavicle -3.23149e-014 -2.52457e-014
lhumerus -26.5826 12.3399 56.8226
lradius 79.1188
lwrist 27.6638
lhand -15.1706 32.5867
lfingers 7.12502
lthumb 11.0002 62.2785
rfemur -0.703071 -7.77703 32.6505
rtibia 24.8978
rfoot -18.7422 -2.37009
rtoes -10.0101
lfemur -29.0239 2.42195 -2.62882
ltibia 61.105
lfoot 10.5406 -2.1666
ltoes -42.1003
326
root -13.6786 17.6982 -2.909 -187.428 157.797 -548.409
lowerback 12.1157 3.19849 11.5422
upperback 2.56268 5.77999 1.5261
thorax -3.07944 2.8091 -5.64334
lowerneck 12.7743 14.3697 16.7829
upperneck -0.85119 21.2424 -13.387
head 0.94737 11.0077 -6.61457
rclavicle 6.38347e-014 4.56211e-014
rhumerus -35.9584 16.0346 -87.5962
rradius 31.3434
rwrist 10.3443
rhand -18.508 -31.6733
rfingers 7.12502
rthumb 7.78008 -61.5101
lclavicle 6.38347e-014 4.56211e-014
lhumerus -26.5833 12.0435 57.0762
lradius 79.0452
lwrist 27.5007
lhand -15.106 32.6384
lfingers 7.12502
lthumb 11.0625 62.3268
rfemur -0.675768 -8.1576 32.5382
rtibia 24.8316
rfoot -18.8144 -2.3017
rtoes -10.0907
lfemur -29.071 2.38385 -2.72461
ltibia 61.0586
lfoot 10.5885 -2.26742
ltoes -42.1338
327
root -13.6797 17.7014 -2.90417 -187.347 157.634 -548.272
lowerback 12.1564 3.27921 11.4881
upperback 2.49425 5.889 1.49143
thorax -3.15751 2.85561 -5.66923
lowerneck 12.9081 14.507 16.6826
upperneck -1.01075 21.4221 -13.4822
head 0.906918 11.1031 -6.63578
rclavicle 1.40392e-015 -2.9122e-014
rhumerus -35.979 15.7986 -87.5711
rradius 31.1819
rwrist 10.6528
rhand -18.3272 -31.918
rfingers 7.12502
rthumb 7.95454 -61.7484
lclavicle 1.40392e-015 -2.9122e-014
lhumerus -26.5501 11.5426 57.4336
lradius 78.9859
lwrist 27.6641
lhand -15.4786 32.6896
lfingers 7.12502
lthumb 10.7031 62.397
rfemur -0.636338 -8.55444 32.342
rtibia 24.727
rfoot -18.8671 -2.15774
rtoes -10.1408
lfemur -29.1001 2.37058 -2.90064
ltibia 60.9909
lfoot 10.6555 -2.31238
ltoes -41.6755
328
root -13.6815 17.702 -2.89989 -187.316 157.482 -548.336
lowerback 12.2477 3.32588 11.6117
upperback 2.38032 5.9887 1.50852
thorax -3.30103 2.89004 -5.74373
lowerneck 13.0372 14.7088 16.7515
upperneck -1.07278 21.7224 -13.8293
head 0.960822 11.2686 -6.73278
rclavicle 5.41191e-014 3.62782e-014
rhumerus -35.9265 15.5079 -87.5277
rradius 30.7425
rwrist 11.1152
rhand -18.4055 -32.0934
rfingers 7.12502
rthumb 7.87899 -61.9266
lclavicle 5.41191e-014 3.62782e-014
lhumerus -26.6127 10.9623 57.8186
lradius 78.8776
lwrist 27.8915
lhand -15.9584 32.6696
lfingers 7.12502
lthumb 10.2403 62.4004
rfemur -0.62711 -8.96041 32.3597
rtibia 24.5882
rfoot -18.9129 -2.01163
rtoes -10.1535
lfemur -29.1542 2.33988 -2.85304
ltibia 60.9023
lfoot 10.7022 -2.27358
ltoes -40.9214
329
root -13.6815 17.7023 -2.89338 -187.249 157.071 -548.54
lowerback 12.2453 3.33728 11.8633
upperback 2.20354 6.05132 1.53659
thorax -3.45457 2.90141 -5.86771
lowerneck 13.079 15.0016 16.9245
upperneck -1.02641 22.1572 -14.2025
head 1.09654 11.5004 -6.82263
rclavicle 8.90431e-014 5.76476e-015
rhumerus -35.8598 14.9119 -87.4114
rradius 30.1088
rwrist 11.6951
rhand -18.6085 -32.0704
rfingers 7.12502
rthumb 7.68307 -61.9109
lclavicle 8.90431e-014 5.76476e-015
lhumerus -26.7066 10.4224 58.3095
lradius 78.5951
lwrist 27.3695
lhand -15.6444 32.3769
lfingers 7.12502
lthumb 10.5432 62.0924
rfemur -0.724817 -9.498 32.5143
rtibia 24.4111
rfoot -18.9284 -2.00927
rtoes -10.4227
lfemur -29.3617 2.09692 -2.6959
ltibia 60.7594
lfoot 10.7246 -2.12865
ltoes -39.3905
330
root -13.6775 17.7099 -2.88235 -187.058 156.384 -548.663
lowerback 12.1139 3.38245 12.0454
upperback 1.9867 6.1326 1.52376
thorax -3.57906 2.92235 -5.98943
lowerneck 13.0305 15.3259 17.1272
upperneck -1.01782 22.6241 -14.5327
head 1.24036 11.7428 -6.89092
rclavicle 1.50331e-015 -4.17448e-015
rhumerus -35.727 13.6573 -87.0914
rradius 29.21
rwrist 12.6593
rhand -18.7566 -32.3272
rfingers 7.12502
rthumb 7.54006 -62.1728
lclavicle 1.50331e-015 -4.17448e-015
lhumerus -26.6769 9.59297 59.1917
lradius 78.351
lwrist 27.4157
lhand -16.1657 31.9415
lfingers 7.12502
lthumb 10.0403 61.682
rfemur -0.907088 -10.0866 32.591
rtibia 24.1904
rfoot -18.9123 -2.20543
rtoes -11.0876
lfemur -29.6866 1.60216 -2.67711
ltibia 60.5279
lfoot 10.7384 -2.00397
ltoes -37.6678
331
root -13.6692 17.7286 -2.86572 -186.696 155.654 -548.534
lowerback 11.8926 3.45481 12.0213
upperback 1.74802 6.20856 1.44974
thorax -3.69259 2.94232 -6.05567
lowerneck 13.2349 15.6911 17.3009
upperneck -1.30713 23.1593 -15.051
head 1.29065 12.0315 -7.039
rclavicle -1.28328e-013 -9.93923e-017
rhumerus -35.61 12.137 -86.6459
rradius 28.0892
rwrist 13.9354
rhand -18.8727 -32.6947
rfingers 7.12502
rthumb 7.42806 -62.5443
lclavicle -1.28328e-013 -9.93923e-017
lhumerus -26.6627 8.82615 60.2498
lradius 77.9612
lwrist 27.2854
lhand -16.6594 31.9479
lfingers 7.12502
lthumb 9.56398 61.7108
rfemur -1.12583 -10.6712 32.4103
rtibia 23.9376
rfoot -18.908 -2.33245
rtoes -11.4747
lfemur -30.0029 1.07038 -2.93738
ltibia 60.181
lfoot 10.7032 -2.1182
ltoes -37.1731
332
root -13.6661 17.7498 -2.85366 -186.269 154.765 -548.308
lowerback 11.7852 3.53135 11.8872
upperback 1.43786 6.29753 1.35998
thorax -3.95321 2.95723 -6.09457
lowerneck 13.5888 16.1939 16.9974
upperneck -1.80755 23.8033 -15.1987
head 1.17556 12.3674 -7.0461
rclavicle -6.39465e-014 2.20651e-014
rhumerus -35.6168 10.4011 -86.0639
rradius 26.853
rwrist 15.3135
rhand -18.9138 -32.6354
rfingers 7.12502
rthumb 7.38838 -62.4864
lclavicle -6.39465e-014 2.20651e-014
lhumerus -26.7801 7.93264 61.5503
lradius 77.4802
lwrist 26.9813
lhand -17.1915 31.7694
lfingers 7.12502
lthumb 9.05055 61.5553
rfemur -1.38575 -11.3295 32.1426
rtibia 23.654
rfoot -18.8789 -2.4433
rtoes -11.2561
lfemur -30.3793 0.382421 -3.28502
ltibia 59.7249
lfoot 10.7353 -2.3226
ltoes -36.8441
333
root -13.6715 17.7689 -2.8452 -185.879 153.711 -548.164
lowerback 11.8203 3.65691 11.7646
upperback 1.07891 6.47622 1.25859
thorax -4.32633 3.00669 -6.17833
lowerneck 13.7762 16.8211 16.5567
upperneck -2.18372 24.5705 -14.9678
head 1.07515 12.7464 -6.90167
rclavicle 8.98755e-014 3.37934e-014
rhumerus -35.6341 7.9972 -85.2872
rradius 25.4087
rwrist 17.0396
rhand -17.8567 -32.3568
rfingers 7.12502
rthumb 8.4086 -62.1694
lclavicle 8.98755e-014 3.37934e-014
lhumerus -26.8556 6.78553 63.1221
lradius 76.7912
lwrist 26.5269
lhand -17.6611 31.3213
lfingers 7.12502
lthumb 8.5974 61.1263
rfemur -1.65481 -11.76 32.0489
rtibia 23.3278
rfoot -18.7761 -2.94934
rtoes -11.2042
lfemur -30.818 -0.46224 -3.50586
ltibia 59.2034
lfoot 10.8639 -2.39011
ltoes -35.3184
334
root -13.6685 17.7917 -2.8249 -185.359 152.783 -547.936
lowerback 11.6311 3.94741 11.6019
upperback 0.761346 6.82734 1.07719
thorax -4.49219 3.15736 -6.31915
lowerneck 13.6708 17.5966 15.8029
upperneck -2.54023 25.4428 -14.2162
head 0.926295 13.1488 -6.55112
rclavicle -2.77429e-014 -6.36111e-015
rhumerus -35.692 4.91733 -84.3092
rradius 23.8254
rwrist 19.2037
rhand -15.9701 -32.2215
rfingers 7.12502
rthumb 10.229 -61.9528
lclavicle -2.77429e-014 -6.36111e-015
lhumerus -26.6863 5.41328 64.9239
lradius 75.9239
lwrist 26.385
lhand -18.1966 31.1611
lfingers 7.12502
lthumb 8.08056 60.9866
rfemur -1.9804 -11.9355 31.9121
rtibia 23.0411
rfoot -18.6923 -3.56326
rtoes -11.4196
lfemur -31.2021 -1.12327 -3.79543
ltibia 58.6316
lfoot 10.8512 -2.60561
ltoes -34.2256
335
root -13.6667 17.8116 -2.8032 -184.885 151.967 -547.991
lowerback 11.4295 4.34076 11.6657
upperback 0.402997 7.34884 0.948331
thorax -4.6422 3.38705 -6.54479
lowerneck 13.4749 18.3355 15.1641
upperneck -2.9454 26.2768 -13.6635
head 0.799525 13.5365 -6.27241
rclavicle -1.10922e-013 -2.46493e-014
rhumerus -35.9734 1.57245 -83.1672
rradius 22.2903
rwrist 21.5935
rhand -16.0506 -32.7721
rfingers 7.12502
rthumb 10.1513 -62.5072
lclavicle -1.10922e-013 -2.46493e-014
lhumerus -26.5499 3.87099 66.9884
lradius 75.0257
lwrist 26.1104
lhand -18.8378 31.0468
lfingers 7.12502
lthumb 7.4617 60.8952
rfemur -2.49057 -11.9823 32.1099
rtibia 22.9249
rfoot -18.609 -4.25335
rtoes -11.4558
lfemur -31.6489 -1.51997 -3.75919
ltibia 58.0039
lfoot 10.9192 -3.18793
ltoes -34.0799
336
root -13.6715 17.831 -2.7853 -184.251 150.858 -547.865
lowerback 11.2585 4.69437 11.5486
upperback -0.042773 7.8024 0.759157
thorax -4.92778 3.57349 -6.7371
lowerneck 13.5365 18.9629 14.8402
upperneck -3.41384 27.0428 -13.5891
head 0.704854 13.9154 -6.1906
rclavicle 3.5247e-014 -1.39149e-014
rhumerus -36.4824 -1.71951 -81.9937
rradius 20.8604
rwrist 24.1848
rhand -17.4918 -33.7437
rfingers 7.12502
rthumb 8.76074 -63.5419
lclavicle 3.5247e-014 -1.39149e-014
lhumerus -26.4837 2.16693 69.2319
lradius 73.5887
lwrist 25.1425
lhand -19.5204 30.5621
lfingers 7.12502
lthumb 6.8028 60.4328
rfemur -3.17348 -12.1128 32.1715
rtibia 22.8842
rfoot -18.492 -5.07901
rtoes -11.6292
lfemur -32.2776 -2.02858 -3.91473
ltibia 57.3115
lfoot 11.1788 -3.67007
ltoes -32.5815
337
root -13.6559 17.8627 -2.76225 -183.08 149.198 -546.719
lowerback 10.784 5.00747 10.7595
upperback -0.401302 8.05101 0.270425
thorax -5.02978 3.69156 -6.81836
lowerneck 13.4238 19.5581 14.601
upperneck -3.63611 27.7759 -13.5028
head 0.710947 14.2742 -6.08167
rclavicle -8.56886e-014 -1.56046e-014
rhumerus -37.0495 -5.08265 -80.7308
rradius 19.4189
rwrist 27.1425
rhand -17.8107 -33.6417
rfingers 7.12502
rthumb 8.45303 -63.4525
lclavicle -8.56886e-014 -1.56046e-014
lhumerus -26.065 0.128024 71.5854
lradius 71.2498
lwrist 24.0082
lhand -19.9027 29.9983
lfingers 7.12502
lthumb 6.43377 59.8806
rfemur -3.8131 -12.8188 31.1184
rtibia 22.7823
rfoot -18.5181 -5.68352
rtoes -11.7602
lfemur -32.9232 -3.09414 -5.2016
ltibia 56.5621
lfoot 11.2843 -3.82041
ltoes -30.2048
338
root -13.6262 17.891 -2.73735 -182.364 147.418 -546.038
lowerback 10.3946 5.09498 10.5911
upperback -0.690636 8.10003 -0.0357248
thorax -5.08918 3.70306 -7.02806
lowerneck 13.4808 20.3018 13.9792
upperneck -3.88906 28.6678 -13.3084
head 0.634017 14.7172 -5.92551
rclavicle -5.5287e-015 -1.27222e-014
rhumerus -37.6889 -7.74998 -79.4858
rradius 17.8372
rwrist 30.2531
rhand -17.3089 -32.5565
rfingers 7.12502
rthumb 8.93729 -62.3472
lclavicle -5.5287e-015 -1.27222e-014
lhumerus -26.0384 -1.52979 73.9051
lradius 68.6354
lwrist 22.5396
lhand -19.7487 29.1887
lfingers 7.12502
lthumb 6.58243 59.0664
rfemur -4.14217 -13.6311 30.4374
rtibia 22.6729
rfoot -18.6455 -6.41425
rtoes -11.599
lfemur -33.3758 -4.2477 -6.06646
ltibia 55.8562
lfoot 11.4134 -4.13313
ltoes -29.1724
339
root -13.5989 17.9068 -2.71052 -182.386 145.769 -546.249
lowerback 10.291 5.30185 11.1124
upperback -0.850956 8.42933 -0.175138
thorax -5.04853 3.84639 -7.48495
lowerneck 13.33 20.8696 13.6956
upperneck -4.2199 29.3475 -13.3197
head 0.607625 15.0528 -5.84856
rclavicle -8.57383e-014 1.88845e-015
rhumerus -38.3493 -10.2957 -78.3737
rradius 16.4082
rwrist 33.0779
rhand -16.461 -31.9183
rfingers 7.12502
rthumb 9.75536 -61.6724
lclavicle -8.57383e-014 1.88845e-015
lhumerus -25.8674 -3.43926 76.2931
lradius 65.8869
lwrist 20.806
lhand -19.1868 28.1157
lfingers 7.12502
lthumb 7.12486 57.9758
rfemur -4.15676 -14.0077 30.6201
rtibia 22.5277
rfoot -18.679 -7.55335
rtoes -11.3018
lfemur -33.6143 -5.03682 -6.06253
ltibia 55.2243
lfoot 11.7838 -4.61526
ltoes -27.9736
